<?xml version="1.0" standalone="no"?>
<!DOCTYPE svg PUBLIC "-//W3C//DTD SVG 20010904//EN"
 "http://www.w3.org/TR/2001/REC-SVG-20010904/DTD/svg10.dtd">
<svg version="1.0" xmlns="http://www.w3.org/2000/svg"
 width="512.000000pt" height="512.000000pt" viewBox="0 0 512.000000 512.000000"
 preserveAspectRatio="xMidYMid meet">
<metadata>
Created by potrace 1.16, written by Peter Selinger 2001-2019
</metadata>
<g transform="translate(0.000000,512.000000) scale(0.100000,-0.100000)"
fill="#000000" stroke="none">
<path d="M2285 5101 c-371 -65 -672 -220 -929 -477 -263 -264 -419 -573 -481
-953 -24 -147 -17 -461 14 -611 44 -210 132 -426 261 -640 109 -182 250 -376
574 -789 145 -185 203 -267 194 -272 -7 -3 -56 -14 -108 -23 -241 -43 -502
-132 -653 -223 -109 -66 -215 -166 -258 -245 -32 -60 -34 -68 -34 -163 0 -90
3 -106 29 -160 131 -267 610 -467 1265 -530 200 -19 602 -19 802 0 655 63
1134 263 1265 530 26 54 29 70 29 160 0 95 -2 103 -34 163 -44 80 -150 180
-261 246 -157 93 -409 179 -650 222 -52 9 -101 20 -108 23 -9 5 53 90 194 272
599 766 742 1012 835 1439 27 122 37 428 19 563 -75 571 -418 1054 -931 1312
-149 76 -298 124 -484 156 -144 25 -406 25 -550 0z m510 -207 c600 -104 1056
-523 1213 -1114 52 -195 56 -500 9 -700 -86 -365 -235 -612 -849 -1397 -128
-164 -315 -408 -416 -543 -100 -135 -187 -245 -192 -245 -5 0 -84 101 -176
225 -92 124 -285 376 -429 560 -422 540 -536 697 -653 901 -159 275 -219 481
-229 776 -6 197 1 269 42 433 42 167 101 299 201 452 229 347 598 585 1014
653 111 19 358 18 465 -1z m-645 -3812 c35 -48 120 -163 188 -257 162 -222
164 -225 222 -225 57 0 67 10 215 215 60 83 143 195 186 251 l78 101 118 -19
c365 -58 673 -173 815 -305 75 -71 97 -146 63 -212 -24 -48 -129 -134 -222
-183 -291 -153 -739 -238 -1253 -238 -514 0 -962 85 -1253 238 -93 49 -198
135 -222 183 -19 37 -19 93 1 134 57 121 322 260 639 336 68 16 311 63 355 68
3 0 34 -39 70 -87z"/>
<path d="M2497 4695 c-67 -68 -24 -175 70 -175 92 0 137 99 77 169 -22 27 -32
31 -74 31 -37 0 -53 -5 -73 -25z"/>
<path d="M2890 4622 c-34 -35 -41 -92 -15 -130 9 -12 67 -46 129 -75 138 -66
216 -118 310 -207 197 -187 336 -489 336 -729 0 -115 36 -171 111 -171 26 0
47 8 68 26 30 25 31 28 31 114 0 238 -75 483 -213 692 -76 117 -242 283 -358
361 -118 78 -251 139 -316 145 -48 4 -55 2 -83 -26z"/>
<path d="M2395 4106 c-242 -62 -426 -234 -506 -471 -21 -61 -24 -88 -24 -220
1 -138 3 -156 27 -223 42 -114 85 -180 172 -268 88 -88 166 -137 281 -175 61
-21 88 -24 220 -24 138 1 156 3 223 27 116 43 181 85 272 177 68 69 94 103
127 171 61 125 76 203 71 352 -5 137 -30 224 -91 327 -79 133 -228 255 -374
306 -67 24 -97 28 -213 31 -89 2 -152 -1 -185 -10z m306 -215 c94 -32 142 -62
206 -127 100 -102 143 -205 143 -344 0 -140 -45 -248 -146 -347 -102 -100
-205 -143 -344 -143 -140 0 -248 45 -347 146 -100 102 -143 205 -143 344 0
140 44 244 145 345 65 65 111 94 200 126 70 25 214 25 286 0z"/>
</g>
</svg>
